<?xml version="1.0" encoding="utf-8"?>
<!-- Generator: Adobe Illustrator 22.1.0, SVG Export Plug-In . SVG Version: 6.00 Build 0)  -->
<svg version="1.1" id="Layer_1" xmlns="http://www.w3.org/2000/svg" xmlns:xlink="http://www.w3.org/1999/xlink" x="0px" y="0px"
	 viewBox="0 0 32 32" style="enable-background:new 0 0 32 32;" xml:space="preserve">
<style type="text/css">
	.st0{fill:#EE1C4E;}
</style>
<rect y="11.4" transform="matrix(-1 -1.224647e-16 1.224647e-16 -1 31.968 24.6231)" class="st0" width="32" height="1.9"/>
<g>
	<path d="M15.7,31.7c-2.3,0-4.7,0-7,0c-1.1,0-1.9-0.6-2.1-1.6c0-0.2,0-0.4,0-0.6c0-4,0-7.9,0-11.9c0-1,0.7-2.1,2-2.1
		c0.1,0,0.2,0,0.3,0c4.5,0,9.1,0,13.6,0c0.9,0,1.6,0.3,2,1.1c0.1,0.2,0.2,0.5,0.2,0.8c0,4.1,0,8.2,0,12.3c0,1-0.8,1.9-1.8,1.9
		c-1.4,0-2.8,0-4.2,0C17.7,31.7,16.7,31.7,15.7,31.7z M22.7,17.5c-4.7,0-9.4,0-14.1,0c0,2.5,0,5.1,0,7.6c0,0,0.1,0,0.1,0.1
		c0.1-0.1,0.1-0.2,0.2-0.3c1-1,1.9-1.9,2.9-2.9c0.5-0.5,1.1-0.5,1.6-0.1c0.5,0.4,0.9,0.8,1.4,1.2c0.5,0.4,1,0.9,1.5,1.4
		c0.9-0.9,1.7-1.7,2.6-2.6c0.5-0.5,1.1-0.5,1.6,0c0.7,0.6,1.3,1.3,2,1.9c0.1,0.1,0.2,0.1,0.3,0.2C22.7,21.9,22.7,19.7,22.7,17.5z
		 M12.7,24C12.6,24,12.6,24,12.7,24c-1.4,1.3-2.7,2.6-4,3.9C8.6,28,8.6,28,8.6,28.1c0,0.5,0,1,0,1.5c3.5,0,6.9,0,10.5,0
		C16.9,27.7,14.8,25.8,12.7,24z M17.9,25.9c1.3,1.2,2.6,2.3,3.9,3.5c0.3,0.3,0.5,0.3,0.9,0.2c0-0.1,0-0.1,0-0.2c0-0.7,0-1.4,0-2.1
		c0-0.1-0.1-0.3-0.2-0.4c-0.5-0.6-1.1-1.1-1.6-1.6c-0.4-0.4-0.7-0.8-1.1-1.2C19.1,24.7,18.5,25.3,17.9,25.9z"/>
</g>
<g>
	<path d="M1,3.7c0-0.2,0.2-0.4,0.4-0.4h25c0.2,0,0.4,0.2,0.4,0.4V4c0,0.2-0.2,0.4-0.4,0.4h-25C1.1,4.3,1,4.1,1,4V3.7z"/>
</g>
<g>
	<path d="M1,1.4C1,1.2,1.1,1,1.3,1h20.2c0.2,0,0.4,0.2,0.4,0.4v0.2c0,0.2-0.2,0.4-0.4,0.4H1.3C1.1,1.9,1,1.8,1,1.6V1.4z"/>
</g>
<g>
	<path d="M1,6.1c0-0.2,0.2-0.4,0.4-0.4h21.8c0.2,0,0.4,0.2,0.4,0.4v0.2c0,0.2-0.2,0.4-0.4,0.4H1.3C1.1,6.7,1,6.5,1,6.3V6.1z"/>
</g>
<g>
	<path d="M1,8.5c0-0.2,0.2-0.4,0.4-0.4h15.8c0.2,0,0.4,0.2,0.4,0.4v0.2c0,0.2-0.2,0.4-0.4,0.4H1.3C1.1,9.1,1,8.9,1,8.7V8.5z"/>
</g>
</svg>
